<svg xmlns="http://www.w3.org/2000/svg" viewBox="0 0 200 160">
  <rect width="200" height="160" fill="#f7f8fa"/>
  <!-- 4×5 矩阵占位 -->
  <g stroke="#d4d4d4" stroke-width="1">
    <rect x="20"  y="20" width="32" height="24" fill="#fff5f0"/>
    <rect x="52"  y="20" width="32" height="24" fill="#fcbba1"/>
    <rect x="84"  y="20" width="32" height="24" fill="#fb6a4a"/>
    <rect x="116" y="20" width="32" height="24" fill="#cb181d"/>
    <rect x="148" y="20" width="32" height="24" fill="#99000d"/>

    <rect x="20"  y="44" width="32" height="24" fill="#fcbba1"/>
    <rect x="52"  y="44" width="32" height="24" fill="#fb6a4a"/>
    <rect x="84"  y="44" width="32" height="24" fill="#ef3b2c"/>
    <rect x="116" y="44" width="32" height="24" fill="#cb181d"/>
    <rect x="148" y="44" width="32" height="24" fill="#fcbba1"/>

    <rect x="20"  y="68" width="32" height="24" fill="#fff5f0"/>
    <rect x="52"  y="68" width="32" height="24" fill="#fcbba1"/>
    <rect x="84"  y="68" width="32" height="24" fill="#fb6a4a"/>
    <rect x="116" y="68" width="32" height="24" fill="#fcbba1"/>
    <rect x="148" y="68" width="32" height="24" fill="#fb6a4a"/>

    <rect x="20"  y="92" width="32" height="24" fill="#fcbba1"/>
    <rect x="52"  y="92" width="32" height="24" fill="#fff5f0"/>
    <rect x="84"  y="92" width="32" height="24" fill="#fcbba1"/>
    <rect x="116" y="92" width="32" height="24" fill="#fb6a4a"/>
    <rect x="148" y="92" width="32" height="24" fill="#ef3b2c"/>
  </g>
  <text x="100" y="142" text-anchor="middle" font-family="-apple-system,Helvetica,Arial,sans-serif" font-size="11" fill="#999">4 应用 × 5 因子（开发中）</text>
</svg>
