<svg xmlns="http://www.w3.org/2000/svg" viewBox="0 0 280 180">
  <defs>
    <linearGradient id="gbg" x1="0" y1="0" x2="0" y2="1">
      <stop offset="0%" stop-color="#1a1a2e"/>
      <stop offset="100%" stop-color="#0d1117"/>
    </linearGradient>
    <linearGradient id="gy" x1="0" y1="0" x2="0" y2="1">
      <stop offset="0%" stop-color="#F4C518"/>
      <stop offset="100%" stop-color="#D4990A"/>
    </linearGradient>
    <linearGradient id="gor" x1="0" y1="0" x2="0" y2="1">
      <stop offset="0%" stop-color="#F08828"/>
      <stop offset="100%" stop-color="#C86818"/>
    </linearGradient>
    <linearGradient id="gr" x1="0" y1="0" x2="0" y2="1">
      <stop offset="0%" stop-color="#DC2440"/>
      <stop offset="100%" stop-color="#A4182C"/>
    </linearGradient>
    <linearGradient id="gdr" x1="0" y1="0" x2="0" y2="1">
      <stop offset="0%" stop-color="#8E1D3C"/>
      <stop offset="100%" stop-color="#5E1028"/>
    </linearGradient>
    <linearGradient id="gmag" x1="0" y1="0" x2="0" y2="1">
      <stop offset="0%" stop-color="#BC1F8C"/>
      <stop offset="100%" stop-color="#881460"/>
    </linearGradient>
    <linearGradient id="legend-g" x1="0" y1="0" x2="1" y2="0">
      <stop offset="0%" stop-color="#F4C518"/>
      <stop offset="30%" stop-color="#F08828"/>
      <stop offset="55%" stop-color="#DC2440"/>
      <stop offset="80%" stop-color="#8E1D3C"/>
      <stop offset="100%" stop-color="#4F0F2A"/>
    </linearGradient>
  </defs>
  <rect width="280" height="180" fill="url(#gbg)"/>
  <!-- 3D 网格底线 -->
  <g opacity="0.08" stroke="#FFF" stroke-width="0.4">
    <line x1="14" y1="130" x2="266" y2="130"/>
    <line x1="14" y1="122" x2="266" y2="122"/>
    <line x1="14" y1="114" x2="266" y2="114"/>
    <line x1="28" y1="100" x2="28" y2="146"/>
    <line x1="56" y1="96" x2="56" y2="146"/>
    <line x1="84" y1="92" x2="84" y2="146"/>
    <line x1="112" y1="90" x2="112" y2="146"/>
    <line x1="140" y1="88" x2="140" y2="146"/>
    <line x1="168" y1="90" x2="168" y2="146"/>
    <line x1="196" y1="92" x2="196" y2="146"/>
    <line x1="224" y1="96" x2="224" y2="146"/>
    <line x1="252" y1="100" x2="252" y2="146"/>
  </g>
  <!-- 后排柱体 -->
  <rect x="34" y="58" width="16" height="62" fill="url(#gdr)" opacity="0.65" rx="1"/>
  <rect x="56" y="52" width="16" height="68" fill="url(#gr)" opacity="0.7" rx="1"/>
  <rect x="78" y="46" width="16" height="74" fill="url(#gor)" opacity="0.75" rx="1"/>
  <rect x="100" y="42" width="16" height="78" fill="url(#gy)" opacity="0.8" rx="1"/>
  <rect x="122" y="40" width="16" height="80" fill="url(#gor)" opacity="0.75" rx="1"/>
  <rect x="144" y="48" width="16" height="72" fill="url(#gr)" opacity="0.7" rx="1"/>
  <rect x="166" y="54" width="16" height="66" fill="url(#gdr)" opacity="0.65" rx="1"/>
  <rect x="188" y="58" width="16" height="62" fill="url(#gdr)" opacity="0.6" rx="1"/>
  <rect x="210" y="62" width="16" height="58" fill="url(#gmag)" opacity="0.55" rx="1"/>
  <!-- 前排柱体 -->
  <polygon points="46,72 60,72 60,128 46,128" fill="url(#gy)" opacity="0.88"/>
  <polygon points="68,66 82,66 82,128 68,128" fill="url(#gor)" opacity="0.88"/>
  <polygon points="90,64 104,64 104,128 90,128" fill="url(#gy)" opacity="0.92"/>
  <polygon points="112,60 126,60 126,128 112,128" fill="url(#gor)" opacity="0.88"/>
  <polygon points="134,62 148,62 148,128 134,128" fill="url(#gr)" opacity="0.82"/>
  <polygon points="156,66 170,66 170,128 156,128" fill="url(#gdr)" opacity="0.76"/>
  <polygon points="178,70 192,70 192,128 178,128" fill="url(#gmag)" opacity="0.72"/>
  <polygon points="200,72 214,72 214,128 200,128" fill="url(#gdr)" opacity="0.66"/>
  <!-- 柱顶亮面 -->
  <polygon points="38,72 52,62 66,72 52,82" fill="#F4C518" opacity="0.32"/>
  <polygon points="60,66 74,56 88,66 74,76" fill="#F08828" opacity="0.28"/>
  <polygon points="82,64 96,54 110,64 96,74" fill="#F4C518" opacity="0.32"/>
  <polygon points="104,60 118,50 132,60 118,70" fill="#F08828" opacity="0.28"/>
  <polygon points="126,62 140,52 154,62 140,72" fill="#DC2440" opacity="0.24"/>
  <polygon points="148,66 162,56 176,66 162,76" fill="#8E1D3C" opacity="0.22"/>
  <polygon points="170,70 184,60 198,70 184,80" fill="#BC1F8C" opacity="0.18"/>
  <!-- 地面 -->
  <rect x="18" y="128" width="244" height="3" fill="#FFF" opacity="0.04" rx="1"/>
  <!-- 色阶图例 -->
  <rect x="16" y="152" width="110" height="7" rx="3.5" fill="url(#legend-g)"/>
  <text x="16" y="174" font-family="Inter,-apple-system,system-ui,sans-serif" font-size="7.5" fill="#555">Low</text>
  <text x="126" y="174" font-family="Inter,-apple-system,system-ui,sans-serif" font-size="7.5" fill="#555" text-anchor="end">High</text>
</svg>
