<svg xmlns="http://www.w3.org/2000/svg" viewBox="0 0 280 180">
  <defs>
    <radialGradient id="pg1" cx="40%" cy="44%" r="34%">
      <stop offset="0%" stop-color="#083D08" stop-opacity="0.9"/>
      <stop offset="35%" stop-color="#2AA02A" stop-opacity="0.7"/>
      <stop offset="65%" stop-color="#6DD06D" stop-opacity="0.35"/>
      <stop offset="100%" stop-color="#A8E6A0" stop-opacity="0"/>
    </radialGradient>
    <radialGradient id="pg2" cx="68%" cy="58%" r="26%">
      <stop offset="0%" stop-color="#167A16" stop-opacity="0.6"/>
      <stop offset="50%" stop-color="#3DBA3D" stop-opacity="0.3"/>
      <stop offset="100%" stop-color="#A8E6A0" stop-opacity="0"/>
    </radialGradient>
    <linearGradient id="legend-p" x1="0" y1="0" x2="1" y2="0">
      <stop offset="0%" stop-color="#A8E6A0"/>
      <stop offset="25%" stop-color="#6DD06D"/>
      <stop offset="50%" stop-color="#3DBA3D"/>
      <stop offset="75%" stop-color="#1DB01D"/>
      <stop offset="100%" stop-color="#083D08"/>
    </linearGradient>
  </defs>
  <rect width="280" height="180" fill="#1a1a2e"/>
  <!-- 暗色底图线 -->
  <path d="M0,88 Q70,82 140,92 T280,86" stroke="#252545" stroke-width="1.2" fill="none"/>
  <path d="M0,118 Q100,108 200,122 T280,114" stroke="#252545" stroke-width="0.8" fill="none"/>
  <path d="M90,0 Q84,55 94,110 T86,180" stroke="#252545" stroke-width="0.8" fill="none"/>
  <!-- 绿色热力叠加 -->
  <rect width="280" height="180" fill="url(#pg1)"/>
  <rect width="280" height="180" fill="url(#pg2)"/>
  <!-- 微弱数据点 -->
  <g opacity="0.3">
    <circle cx="96" cy="70" r="1.3" fill="#3DBA3D"/>
    <circle cx="112" cy="56" r="1.1" fill="#2AA02A"/>
    <circle cx="82" cy="82" r="1.5" fill="#1DB01D"/>
    <circle cx="122" cy="74" r="1" fill="#3DBA3D"/>
    <circle cx="102" cy="90" r="1.2" fill="#2AA02A"/>
    <circle cx="88" cy="48" r="0.9" fill="#3DBA3D"/>
    <circle cx="132" cy="64" r="1.3" fill="#1DB01D"/>
    <circle cx="142" cy="80" r="1.1" fill="#2AA02A"/>
    <circle cx="74" cy="66" r="0.9" fill="#3DBA3D"/>
    <circle cx="152" cy="72" r="1.3" fill="#1DB01D"/>
    <circle cx="116" cy="44" r="0.9" fill="#3DBA3D"/>
    <circle cx="162" cy="86" r="1.1" fill="#2AA02A"/>
  </g>
  <!-- 色阶图例 -->
  <rect x="16" y="150" width="110" height="7" rx="3.5" fill="url(#legend-p)"/>
  <text x="16" y="172" font-family="Inter,-apple-system,system-ui,sans-serif" font-size="7.5" fill="#555">Low</text>
  <text x="126" y="172" font-family="Inter,-apple-system,system-ui,sans-serif" font-size="7.5" fill="#555" text-anchor="end">High</text>
</svg>
