<svg xmlns="http://www.w3.org/2000/svg" viewBox="0 0 280 180">
  <defs>
    <radialGradient id="h1" cx="38%" cy="42%" r="32%">
      <stop offset="0%" stop-color="#FF4136" stop-opacity="0.85"/>
      <stop offset="25%" stop-color="#FF851B" stop-opacity="0.6"/>
      <stop offset="55%" stop-color="#FFDC00" stop-opacity="0.28"/>
      <stop offset="100%" stop-color="#2ECC40" stop-opacity="0"/>
    </radialGradient>
    <radialGradient id="h2" cx="68%" cy="56%" r="26%">
      <stop offset="0%" stop-color="#FF4136" stop-opacity="0.65"/>
      <stop offset="35%" stop-color="#FF851B" stop-opacity="0.35"/>
      <stop offset="100%" stop-color="#FFDC00" stop-opacity="0"/>
    </radialGradient>
    <radialGradient id="h3" cx="52%" cy="28%" r="18%">
      <stop offset="0%" stop-color="#FF851B" stop-opacity="0.4"/>
      <stop offset="100%" stop-color="#2ECC40" stop-opacity="0"/>
    </radialGradient>
    <linearGradient id="legend-t" x1="0" y1="0" x2="1" y2="0">
      <stop offset="0%" stop-color="#0074D9"/>
      <stop offset="25%" stop-color="#2ECC40"/>
      <stop offset="50%" stop-color="#FFDC00"/>
      <stop offset="75%" stop-color="#FF851B"/>
      <stop offset="100%" stop-color="#FF4136"/>
    </linearGradient>
  </defs>
  <rect width="280" height="180" fill="#1a1a2e"/>
  <!-- 暗色底图线 -->
  <path d="M0,92 Q70,86 140,96 T280,90" stroke="#252545" stroke-width="1.5" fill="none"/>
  <path d="M0,122 Q100,112 200,126 T280,118" stroke="#252545" stroke-width="1" fill="none"/>
  <path d="M82,0 Q76,60 86,120 T78,180" stroke="#252545" stroke-width="1" fill="none"/>
  <path d="M198,0 Q193,50 204,100 T196,180" stroke="#252545" stroke-width="0.8" fill="none"/>
  <!-- 热力叠加 -->
  <rect width="280" height="180" fill="url(#h1)"/>
  <rect width="280" height="180" fill="url(#h2)"/>
  <rect width="280" height="180" fill="url(#h3)"/>
  <!-- 微弱数据点 -->
  <g opacity="0.22">
    <circle cx="92" cy="70" r="1.2" fill="#fff"/>
    <circle cx="108" cy="56" r="1" fill="#fff"/>
    <circle cx="80" cy="80" r="1.3" fill="#fff"/>
    <circle cx="118" cy="74" r="1" fill="#fff"/>
    <circle cx="98" cy="90" r="1.1" fill="#fff"/>
    <circle cx="84" cy="48" r="0.8" fill="#fff"/>
    <circle cx="128" cy="64" r="1.2" fill="#fff"/>
    <circle cx="138" cy="80" r="1" fill="#fff"/>
    <circle cx="72" cy="66" r="0.9" fill="#fff"/>
    <circle cx="148" cy="72" r="1.1" fill="#fff"/>
    <circle cx="112" cy="44" r="0.8" fill="#fff"/>
    <circle cx="158" cy="86" r="1" fill="#fff"/>
    <circle cx="178" cy="60" r="1.2" fill="#fff"/>
    <circle cx="192" cy="74" r="1" fill="#fff"/>
    <circle cx="168" cy="50" r="0.8" fill="#fff"/>
  </g>
  <!-- 色阶图例 -->
  <rect x="16" y="150" width="110" height="7" rx="3.5" fill="url(#legend-t)"/>
  <text x="16" y="172" font-family="Inter,-apple-system,system-ui,sans-serif" font-size="7.5" fill="#555">Low</text>
  <text x="126" y="172" font-family="Inter,-apple-system,system-ui,sans-serif" font-size="7.5" fill="#555" text-anchor="end">High</text>
</svg>
